<?xml version="1.0" encoding="UTF-8"?>
<svg xmlns="http://www.w3.org/2000/svg" version="1.1" xmlns:xlink="http://www.w3.org/1999/xlink" viewBox="0 0 1080 1080">
  <defs>
    <style>
      .cls-1 {
        clip-path: url(#clippath-34);
      }

      .cls-2 {
        clip-path: url(#clippath-38);
      }

      .cls-3 {
        clip-path: url(#clippath-21);
      }

      .cls-4 {
        clip-path: url(#clippath-6);
      }

      .cls-5 {
        clip-path: url(#clippath-7);
      }

      .cls-6 {
        clip-path: url(#clippath-17);
      }

      .cls-7 {
        clip-path: url(#clippath-31);
      }

      .cls-8 {
        clip-path: url(#clippath-15);
      }

      .cls-9 {
        clip-path: url(#clippath-33);
      }

      .cls-10 {
        clip-path: url(#clippath-18);
      }

      .cls-11 {
        clip-path: url(#clippath-4);
      }

      .cls-12 {
        clip-path: url(#clippath-22);
      }

      .cls-13 {
        clip-path: url(#clippath-23);
      }

      .cls-14 {
        fill: #473e39;
      }

      .cls-15 {
        clip-path: url(#clippath-9);
      }

      .cls-16 {
        clip-path: url(#clippath-10);
      }

      .cls-17 {
        fill: #fff;
      }

      .cls-18 {
        clip-path: url(#clippath-25);
      }

      .cls-19 {
        fill: #4b7968;
      }

      .cls-20 {
        clip-path: url(#clippath-27);
      }

      .cls-21 {
        fill: #477262;
      }

      .cls-22 {
        fill: #68a991;
      }

      .cls-23 {
        clip-path: url(#clippath-11);
      }

      .cls-24 {
        fill: none;
      }

      .cls-25 {
        clip-path: url(#clippath-36);
      }

      .cls-26 {
        clip-path: url(#clippath-35);
      }

      .cls-27 {
        fill: #528f70;
      }

      .cls-28 {
        clip-path: url(#clippath-28);
      }

      .cls-29 {
        fill: #d08c32;
      }

      .cls-30 {
        clip-path: url(#clippath-1);
      }

      .cls-31 {
        fill: #538674;
      }

      .cls-32 {
        fill: #548675;
      }

      .cls-33 {
        clip-path: url(#clippath-40);
      }

      .cls-34 {
        fill: #477363;
      }

      .cls-35 {
        clip-path: url(#clippath-5);
      }

      .cls-36 {
        clip-path: url(#clippath-20);
      }

      .cls-37 {
        fill: #4f7f6e;
      }

      .cls-38 {
        clip-path: url(#clippath-8);
      }

      .cls-39 {
        fill: #467060;
      }

      .cls-40 {
        clip-path: url(#clippath-41);
      }

      .cls-41 {
        clip-path: url(#clippath-3);
      }

      .cls-42 {
        clip-path: url(#clippath-26);
      }

      .cls-43 {
        clip-path: url(#clippath-12);
      }

      .cls-44 {
        clip-path: url(#clippath-14);
      }

      .cls-45 {
        fill: #4f7d6c;
      }

      .cls-46 {
        clip-path: url(#clippath-30);
      }

      .cls-47 {
        clip-path: url(#clippath-19);
      }

      .cls-48 {
        clip-path: url(#clippath-32);
      }

      .cls-49 {
        fill: #497665;
      }

      .cls-50 {
        fill: #477261;
      }

      .cls-51 {
        fill: #fbce0e;
      }

      .cls-52 {
        fill: #d07055;
      }

      .cls-53 {
        clip-path: url(#clippath-39);
      }

      .cls-54 {
        clip-path: url(#clippath-16);
      }

      .cls-55 {
        clip-path: url(#clippath-2);
      }

      .cls-56 {
        clip-path: url(#clippath-29);
      }

      .cls-57 {
        fill: #50806f;
      }

      .cls-58 {
        fill: #c5a82a;
      }

      .cls-59 {
        clip-path: url(#clippath-37);
      }

      .cls-60 {
        clip-path: url(#clippath-13);
      }

      .cls-61 {
        fill: #6bb098;
      }

      .cls-62 {
        fill: #4d7b6a;
      }

      .cls-63 {
        clip-path: url(#clippath-24);
      }

      .cls-64 {
        fill: #ac4558;
      }

      .cls-65 {
        clip-path: url(#clippath);
      }
    </style>
    <clipPath id="clippath">
      <path class="cls-24" d="M740.42,477.43c-5.18,24.09-10.37,48.17-15.54,72.26.12-.57.31-1.08.59-1.55l15.54-72.26c-.28.47-.47.98-.59,1.55"/>
    </clipPath>
    <clipPath id="clippath-1">
      <path class="cls-24" d="M741.48,486.46c-5.18,24.09-10.35,48.17-15.54,72.26.12-.54.35-.84.69-.88l15.56-72.26c-.35.05-.59.34-.71.88"/>
    </clipPath>
    <clipPath id="clippath-2">
      <path class="cls-24" d="M742.48,497.1c-5.18,24.09-10.35,48.17-15.54,72.26.1-.45.33-.69.68-.74l15.54-72.26c-.35.05-.57.3-.68.74"/>
    </clipPath>
    <clipPath id="clippath-3">
      <path class="cls-24" d="M744.07,505.81c-5.19,24.09-10.37,48.17-15.54,72.26.09-.41.23-.68.45-.82l15.54-72.26c-.21.14-.36.41-.45.82"/>
    </clipPath>
    <clipPath id="clippath-4">
      <path class="cls-24" d="M745.42,517.39c-5.19,24.09-10.37,48.17-15.56,72.26.09-.39.28-.61.57-.65l15.56-72.26c-.3.04-.49.26-.57.65"/>
    </clipPath>
    <clipPath id="clippath-5">
      <path class="cls-24" d="M588.29,383.2c-.02.06,0,.12.02.18l15.54-72.26c-.02-.06-.03-.12-.02-.19-5.18,24.09-10.37,48.17-15.54,72.26"/>
    </clipPath>
    <clipPath id="clippath-6">
      <path class="cls-24" d="M671.75,388.28c-.85,7.91-.85,12.77.02,14.55l15.54-72.27c-.85-1.79-.87-6.64-.02-14.55l-15.54,72.26Z"/>
    </clipPath>
    <clipPath id="clippath-7">
      <path class="cls-24" d="M581.71,358.15c-2.08,9.63-4.15,19.27-6.22,28.9-.02.07-.02.15.02.22l15.56-72.26c-.03-.07-.05-.14-.03-.22-3.11,14.46-6.22,28.91-9.33,43.36"/>
    </clipPath>
    <clipPath id="clippath-8">
      <path class="cls-24" d="M671.49,403.89c-.31,1.44-.4,2.96-.3,4.56l15.56-72.26c-.12-1.6-.03-3.12.28-4.56-5.18,24.09-10.35,48.17-15.54,72.26"/>
    </clipPath>
    <clipPath id="clippath-9">
      <path class="cls-24" d="M446.41,394.81c-.02.07,0,.14.03.21l15.55-72.26c-.03-.07-.04-.14-.03-.21l-15.55,72.26Z"/>
    </clipPath>
    <clipPath id="clippath-10">
      <path class="cls-24" d="M650.9,440.6c.03,2.76.07,5.47.12,8.11.33,19.58,1.2,35.84,2.54,48.73l15.54-72.26c-1.34-12.9-2.19-29.15-2.54-48.73-.05-2.64-.09-5.35-.1-8.11l-15.56,72.26Z"/>
    </clipPath>
    <clipPath id="clippath-11">
      <path class="cls-24" d="M551.79,442.56c1.25,3.81,1.74,6.39,1.44,7.72,5.19-24.09,10.37-48.17,15.54-72.26.3-1.33-.19-3.91-1.44-7.72l-15.54,72.26Z"/>
    </clipPath>
    <clipPath id="clippath-12">
      <path class="cls-24" d="M552.5,451.29c1.6,3.33,2.36,9.27,2.29,17.86l15.54-72.26c.07-8.58-.69-14.52-2.29-17.86l-15.54,72.26Z"/>
    </clipPath>
    <clipPath id="clippath-13">
      <path class="cls-24" d="M554.79,469.15c.42,1.6.75,2.97.99,4.15l15.54-72.26c-.23-1.17-.57-2.54-.99-4.15l-15.54,72.26Z"/>
    </clipPath>
    <clipPath id="clippath-14">
      <path class="cls-24" d="M571.27,406.12l-15.54,72.26c.24-.03.4-.25.49-.64l15.56-72.26c-.09.39-.26.61-.5.65"/>
    </clipPath>
    <clipPath id="clippath-15">
      <path class="cls-24" d="M572.26,416.88l-15.54,72.26c.35-.05.59-.34.69-.88,5.19-24.09,10.37-48.17,15.56-72.26-.12.54-.35.83-.71.88"/>
    </clipPath>
    <clipPath id="clippath-16">
      <path class="cls-24" d="M541.27,485.38c2.1,3.76,4.45,8.05,7.05,12.88l15.54-72.26c-2.6-4.83-4.95-9.12-7.05-12.88l-15.54,72.26Z"/>
    </clipPath>
    <clipPath id="clippath-17">
      <path class="cls-24" d="M653.55,497.44c.14,8.04,1.15,16.91,3,26.6l15.54-72.26c-1.86-9.7-2.87-18.56-3-26.6l-15.54,72.26Z"/>
    </clipPath>
    <clipPath id="clippath-18">
      <path class="cls-24" d="M535.05,506.84c1.44,5.12,2,8.42,1.68,9.89l15.56-72.26c.31-1.47-.26-4.77-1.7-9.89l-15.54,72.26Z"/>
    </clipPath>
    <clipPath id="clippath-19">
      <path class="cls-24" d="M536.04,517.6c1.58,4.26,2.27,6.84,2.08,7.72l15.54-72.26c.19-.89-.5-3.46-2.07-7.72l-15.56,72.26Z"/>
    </clipPath>
    <clipPath id="clippath-20">
      <path class="cls-24" d="M537.83,525.67c1.29,6.63,1.75,10.75,1.41,12.37l15.56-72.26c.35-1.62-.14-5.75-1.41-12.37l-15.56,72.26Z"/>
    </clipPath>
    <clipPath id="clippath-21">
      <path class="cls-24" d="M595.95,534.64c7.17,13.2,11.03,19.76,11.57,19.68l15.54-72.26c-.54.07-4.39-6.48-11.57-19.68l-15.54,72.26Z"/>
    </clipPath>
    <clipPath id="clippath-22">
      <path class="cls-24" d="M612.92,482.24c-5.19,24.09-10.37,48.17-15.56,72.26.05-.21.16-.33.3-.35l15.54-72.26c-.14.02-.24.14-.28.35"/>
    </clipPath>
    <clipPath id="clippath-23">
      <path class="cls-24" d="M539.09,538.47c1.51,4.06,2.08,6.97,1.7,8.75l15.54-72.26c.38-1.78-.19-4.69-1.7-8.75l-15.54,72.26Z"/>
    </clipPath>
    <clipPath id="clippath-24">
      <path class="cls-24" d="M614.39,490.72c-5.19,24.09-10.37,48.17-15.56,72.26.1-.47.3-.72.59-.76l15.56-72.26c-.3.04-.5.29-.59.76"/>
    </clipPath>
    <clipPath id="clippath-25">
      <path class="cls-24" d="M615.73,501.82c-5.18,24.09-10.35,48.17-15.54,72.26.09-.37.24-.57.47-.61l15.54-72.26c-.23.03-.38.24-.47.61"/>
    </clipPath>
    <clipPath id="clippath-26">
      <path class="cls-24" d="M617.02,511.42c-5.18,24.09-10.37,48.17-15.54,72.26.05-.3.19-.47.36-.49l15.54-72.26c-.17.03-.3.19-.36.5"/>
    </clipPath>
    <clipPath id="clippath-27">
      <path class="cls-24" d="M618.28,521.75c-5.18,24.09-10.37,48.17-15.54,72.26.09-.39.24-.61.5-.64l15.54-72.26c-.24.04-.42.25-.5.64"/>
    </clipPath>
    <clipPath id="clippath-28">
      <path class="cls-24" d="M619.73,531.86c-3.11,14.45-6.22,28.91-9.33,43.36-.24,1.08-.56,2.53-.78,3.61-1.82,8.43-3.63,16.86-5.44,25.29.07-.34.23-.53.47-.56l15.54-72.26c-.24.03-.4.22-.47.56"/>
    </clipPath>
    <clipPath id="clippath-29">
      <path class="cls-24" d="M621.44,541.68c-5.19,24.09-10.37,48.18-15.56,72.26.1-.47.3-.72.59-.76l15.54-72.26c-.28.04-.49.29-.57.76"/>
    </clipPath>
    <clipPath id="clippath-30">
      <path class="cls-24" d="M622.68,552.83c-5.19,24.09-10.37,48.17-15.54,72.26.07-.4.28-.62.57-.66l15.54-72.26c-.3.04-.49.26-.57.66"/>
    </clipPath>
    <clipPath id="clippath-31">
      <path class="cls-24" d="M463.54,545.9c15.56,22.73,30.57,45.59,45.01,68.57l15.55-72.26c-14.44-22.98-29.46-45.84-45.01-68.57l-15.55,72.26Z"/>
    </clipPath>
    <clipPath id="clippath-32">
      <path class="cls-24" d="M295.22,479.13c.95.04,2.21.73,3.8,2.06l15.55-72.26c-1.59-1.33-2.85-2.02-3.79-2.06l-15.55,72.26Z"/>
    </clipPath>
    <clipPath id="clippath-33">
      <path class="cls-24" d="M237.58,507.49c1.79,10.06,2.47,16.04,2.06,17.96,5.18-24.09,10.36-48.17,15.55-72.26.41-1.92-.27-7.9-2.06-17.96l-15.55,72.26Z"/>
    </clipPath>
    <clipPath id="clippath-34">
      <path class="cls-24" d="M308.52,515.3c-.04.2-.09.4-.13.6.05-.21.09-.42.13-.6M301.91,539.51c.2.42.62.67,1.25.74.9-4.16,1.79-8.32,2.68-12.48.62-2.89,1.24-5.78,1.86-8.66-.39,1.8-.77,3.6-1.16,5.4-1.13,5.25-2.26,10.5-3.39,15.75.33.03.72.02,1.18-.04l15.55-72.26c-.45.06-.84.08-1.17.04-.64-.07-1.06-.32-1.26-.74l-15.55,72.26Z"/>
    </clipPath>
    <clipPath id="clippath-35">
      <path class="cls-24" d="M239.46,525.94c1.24,5.07,1.74,8.16,1.5,9.26,5.18-24.09,10.36-48.17,15.55-72.26.24-1.1-.26-4.19-1.5-9.26l-15.55,72.26Z"/>
    </clipPath>
    <clipPath id="clippath-36">
      <path class="cls-24" d="M240.64,535.65c1.3,6.32,1.8,10.2,1.49,11.67,5.18-24.09,10.36-48.17,15.55-72.26.31-1.46-.19-5.35-1.49-11.66l-15.55,72.26Z"/>
    </clipPath>
    <clipPath id="clippath-37">
      <path class="cls-24" d="M241.68,547.97c1.14,2.37,1.55,4.3,1.23,5.79,5.18-24.09,10.36-48.17,15.55-72.26.32-1.49-.09-3.42-1.23-5.79l-15.55,72.26Z"/>
    </clipPath>
    <clipPath id="clippath-38">
      <path class="cls-24" d="M359.26,611.04c2.28.63,5.81,4.11,10.61,10.45l15.55-72.26c-4.8-6.35-8.33-9.83-10.61-10.45l-15.55,72.26Z"/>
    </clipPath>
    <clipPath id="clippath-39">
      <path class="cls-24" d="M247.7,622.98c.8,3.52,1.08,5.84.84,6.97,5.18-24.09,10.36-48.17,15.55-72.26.24-1.13-.04-3.45-.84-6.97l-15.55,72.26Z"/>
    </clipPath>
    <clipPath id="clippath-40">
      <path class="cls-24" d="M247.94,630.74c.97,3.49,1.47,8.39,1.55,14.69l15.55-72.26c-.08-6.29-.59-11.2-1.55-14.69l-15.55,72.26Z"/>
    </clipPath>
    <clipPath id="clippath-41">
      <path class="cls-24" d="M228.8,677.81c-.02.65-.02,1.29-.03,1.95l15.55-72.26c.01-.67.01-1.3.02-1.95l-15.54,72.26Z"/>
    </clipPath>
  </defs>
  <!-- Generator: Adobe Illustrator 28.6.0, SVG Export Plug-In . SVG Version: 1.2.0 Build 709)  -->
  <g>
    <g id="Capa_1">
      <circle class="cls-51" cx="522.77" cy="540" r="474.26"/>
      <g class="cls-65">
        <path class="cls-62" d="M741.01,475.88l-15.55,72.26c-.15.26-.28.53-.38.81l15.55-72.26c.1-.28.23-.56.38-.81"/>
        <path class="cls-19" d="M740.63,476.69l-15.55,72.26c-.09.24-.16.48-.22.74l15.55-72.26c.06-.26.13-.5.22-.74"/>
      </g>
      <g class="cls-30">
        <path class="cls-57" d="M742.19,485.58l-15.55,72.26c-.1.02-.2.05-.28.11l15.55-72.26c.08-.06.18-.09.28-.11"/>
        <path class="cls-45" d="M741.91,485.68l-15.55,72.26c-.07.05-.13.11-.18.18l15.55-72.26c.05-.07.11-.14.18-.18"/>
        <path class="cls-62" d="M741.72,485.87l-15.55,72.26c-.06.09-.11.19-.16.31l15.55-72.26c.04-.12.09-.22.16-.31"/>
        <path class="cls-19" d="M741.56,486.17l-15.55,72.26c-.03.09-.06.18-.08.29l15.55-72.26c.02-.1.05-.2.08-.29"/>
      </g>
      <g class="cls-55">
        <path class="cls-57" d="M743.16,496.35l-15.55,72.26c-.12.02-.23.06-.32.12l15.54-72.26c.09-.07.2-.11.32-.12"/>
        <path class="cls-45" d="M742.85,496.48l-15.55,72.26c-.06.05-.12.1-.17.17l15.55-72.26c.05-.07.1-.12.17-.17"/>
        <path class="cls-62" d="M742.68,496.65l-15.55,72.26c-.05.07-.09.15-.13.25l15.55-72.26c.03-.1.08-.18.13-.25"/>
        <path class="cls-19" d="M742.55,496.89l-15.55,72.26c-.02.06-.04.13-.06.2l15.55-72.26c.02-.07.03-.14.06-.2"/>
      </g>
      <g class="cls-41">
        <path class="cls-57" d="M744.52,505l-15.54,72.26s-.02.02-.03.02l15.54-72.26s.02-.02.03-.02"/>
        <path class="cls-45" d="M744.48,505.02l-15.54,72.26c-.07.05-.13.11-.18.18l15.55-72.26c.05-.07.11-.14.18-.18"/>
        <path class="cls-62" d="M744.31,505.2l-15.55,72.26c-.06.09-.11.19-.16.31l15.55-72.26c.04-.12.1-.22.16-.31"/>
        <path class="cls-19" d="M744.15,505.51l-15.55,72.26c-.03.09-.06.19-.09.31l15.55-72.26c.02-.11.05-.21.09-.3"/>
      </g>
      <g class="cls-11">
        <path class="cls-57" d="M745.98,516.73l-15.55,72.26c-.09.02-.18.05-.25.1l15.55-72.26c.07-.05.16-.08.25-.1"/>
        <path class="cls-45" d="M745.73,516.83l-15.55,72.26c-.06.04-.11.09-.15.15l15.54-72.26c.04-.06.09-.11.15-.15"/>
        <path class="cls-62" d="M745.58,516.98l-15.54,72.26c-.05.06-.09.13-.11.22l15.55-72.26c.03-.09.07-.16.11-.22"/>
        <path class="cls-19" d="M745.47,517.2l-15.55,72.26c-.02.06-.04.12-.05.19l15.55-72.26c.01-.07.03-.13.05-.19"/>
      </g>
      <polygon class="cls-39" points="687.3 308.76 671.75 381.02 672.67 361.14 688.22 288.88 687.3 308.76"/>
      <polygon class="cls-39" points="687.3 316.02 671.75 388.28 671.75 381.02 687.29 308.76 687.3 316.02"/>
      <g class="cls-35">
        <path class="cls-34" d="M603.85,311.12l-15.54,72.26c-.03-.06-.04-.12-.02-.18l15.55-72.26c-.01.06,0,.12.02.18"/>
      </g>
      <g class="cls-4">
        <path class="cls-34" d="M687.31,330.57l-15.55,72.26c-.86-1.79-.86-6.64-.01-14.55l15.54-72.26c-.85,7.91-.84,12.77.01,14.55"/>
      </g>
      <g class="cls-5">
        <path class="cls-34" d="M591.07,315.01l-15.55,72.26c-.03-.07-.04-.14-.03-.22l15.55-72.26c-.02.07,0,.15.03.22"/>
      </g>
      <g class="cls-38">
        <path class="cls-34" d="M686.76,336.18l-15.55,72.26c-.11-1.6-.02-3.12.29-4.56l15.55-72.26c-.31,1.44-.4,2.96-.29,4.56"/>
      </g>
      <polygon class="cls-14" points="759.76 295.16 744.22 367.43 671.21 408.45 686.75 336.19 759.76 295.16"/>
      <path class="cls-22" d="M689.02,286.16c4.81-.68,12.12-.49,21.94.56,13.44,1.05,22.39,2.22,26.84,3.49,1.86-.26,7.52.85,16.98,3.33,2.2.29,3.86.82,5,1.61l-73.01,41.02c-.14-2,.04-3.86.56-5.61-.86-1.78-.86-6.64-.01-14.55v-7.26s.92-19.88.92-19.88l.79-2.71Z"/>
      <g class="cls-15">
        <path class="cls-34" d="M461.98,322.76l-15.55,72.26c-.03-.07-.04-.14-.03-.21l15.55-72.26c-.02.07,0,.14.03.21"/>
      </g>
      <polygon class="cls-31" points="687.43 356.55 671.89 428.81 650.91 440.6 666.45 368.34 687.43 356.55"/>
      <polygon class="cls-39" points="666.56 376.45 651.01 448.71 640.78 429.46 656.32 357.2 666.56 376.45"/>
      <g class="cls-16">
        <path class="cls-34" d="M669.1,425.18l-15.55,72.26c-1.35-12.9-2.2-29.15-2.54-48.73-.05-2.64-.08-5.35-.11-8.11l15.55-72.26c.03,2.76.06,5.47.11,8.11.34,19.58,1.2,35.84,2.54,48.73"/>
      </g>
      <path class="cls-22" d="M687.12,339.88c.06,5.83.16,11.39.3,16.67l-20.98,11.79c.03,2.76.06,5.47.11,8.11l-10.24-19.26,30.81-17.32Z"/>
      <path class="cls-64" d="M565.73,346.62v-7.28c-.75-1.53-.9-4.28-.48-8.24-.7-1.45-.92-2.76-.66-3.94l-15.54,72.26c-.25,1.18-.03,2.5.66,3.94-.43,3.96-.27,6.71.47,8.24v7.28c1.57,13.2,2.11,21.09,1.61,23.68l15.55-72.26c.5-2.59-.04-10.48-1.6-23.68"/>
      <polygon class="cls-39" points="419.11 339.69 403.56 411.95 403.33 411.47 418.87 339.21 419.11 339.69"/>
      <path class="cls-64" d="M568.77,378.02c-5.18,24.09-10.36,48.17-15.55,72.26.29-1.33-.2-3.91-1.45-7.72l15.55-72.26c1.25,3.81,1.74,6.39,1.45,7.72"/>
      <g class="cls-23">
        <path class="cls-64" d="M568.77,378.02l-15.55,72.26c.29-1.33-.2-3.91-1.45-7.72l15.55-72.26c1.25,3.81,1.74,6.39,1.45,7.72"/>
      </g>
      <path class="cls-64" d="M570.34,396.89l-15.55,72.26c.07-8.59-.69-14.52-2.29-17.86l15.54-72.26c1.6,3.33,2.37,9.27,2.3,17.86"/>
      <g class="cls-43">
        <path class="cls-64" d="M570.34,396.89l-15.55,72.26c.07-8.59-.69-14.52-2.29-17.86l15.54-72.26c1.6,3.33,2.37,9.27,2.3,17.86"/>
      </g>
      <path class="cls-64" d="M571.33,401.03l-15.55,72.26c-.23-1.17-.57-2.54-.99-4.15l15.55-72.26c.42,1.6.76,2.98.99,4.15"/>
      <g class="cls-60">
        <path class="cls-64" d="M571.33,401.03l-15.55,72.26c-.23-1.17-.57-2.54-.99-4.15l15.55-72.26c.42,1.6.76,2.98.99,4.15"/>
      </g>
      <polygon class="cls-14" points="654.73 354.19 639.19 426.45 555.79 473.3 571.34 401.03 654.73 354.19"/>
      <path class="cls-22" d="M628.18,303.55c1.84.96,3.05,1.99,3.6,3.13l22,45.74.94,1.76-83.4,46.85c-.24-1.17-.57-2.54-.99-4.15.07-8.59-.69-14.53-2.3-17.86,1.3-.44,1.06-3.36-.71-8.73.5-2.59-.04-10.48-1.6-23.68v-7.28c-.74-1.53-.9-4.28-.48-8.24-2.34-4.87.69-8.24,9.11-10.11,5.66-2.53,11.22-4.52,16.7-5.99-.47-.98,3.79-2.26,12.8-3.88-.51-1.05,5.65-2.78,18.48-5.19.77-1.06,2.71-1.86,5.85-2.38"/>
      <g class="cls-44">
        <path class="cls-19" d="M571.78,405.47l-15.55,72.26c-.02.08-.04.16-.06.23l15.55-72.26c.02-.07.05-.14.06-.22"/>
        <path class="cls-62" d="M571.71,405.7l-15.55,72.26c-.03.09-.07.16-.11.22l15.55-72.26c.04-.06.08-.14.11-.22"/>
        <path class="cls-45" d="M571.59,405.92l-15.55,72.26c-.03.05-.07.09-.12.12l15.55-72.26s.08-.07.12-.12"/>
        <path class="cls-57" d="M571.48,406.04l-15.55,72.26c-.06.04-.12.07-.19.08l15.55-72.26c.07-.01.14-.04.2-.08"/>
      </g>
      <g class="cls-8">
        <path class="cls-19" d="M572.98,416l-15.55,72.26c-.02.1-.05.2-.08.28l15.55-72.26c.03-.09.06-.18.08-.28"/>
        <path class="cls-62" d="M572.89,416.28l-15.55,72.26c-.04.12-.1.22-.15.3l15.55-72.26c.06-.08.11-.18.16-.3"/>
        <path class="cls-45" d="M572.73,416.59l-15.55,72.26c-.06.08-.11.14-.18.18l15.55-72.26c.07-.05.13-.11.18-.18"/>
        <path class="cls-57" d="M572.56,416.77l-15.55,72.26c-.08.06-.18.09-.28.11l15.55-72.26c.1-.01.2-.05.28-.11"/>
      </g>
      <g class="cls-54">
        <path class="cls-34" d="M563.86,425.99l-15.55,72.26c-2.59-4.83-4.94-9.12-7.04-12.88l15.55-72.26c2.1,3.76,4.45,8.05,7.04,12.88"/>
      </g>
      <polygon class="cls-31" points="573.55 420.55 558 492.81 548.31 498.26 563.86 425.99 573.55 420.55"/>
      <path class="cls-22" d="M571.85,404.67c0,.91-.19,1.39-.56,1.44,1.97,7,2.3,10.58,1,10.76.52,1.41.94,2.63,1.27,3.67l-9.69,5.44c-2.59-4.83-4.94-9.12-7.04-12.88l15.03-8.44Z"/>
      <g class="cls-6">
        <path class="cls-34" d="M672.1,451.79l-15.55,72.26c-1.86-9.69-2.87-18.56-3.01-26.6l15.55-72.26c.14,8.04,1.15,16.91,3.01,26.6"/>
      </g>
      <path class="cls-64" d="M467.18,398.91c-1.5-.91-4.77-5.3-9.83-13.16-16.33-21.35-29.08-36.7-38.24-46.07l-15.55,72.26c9.17,9.37,21.92,24.72,38.25,46.07,5.06,7.87,8.33,12.25,9.82,13.16l14.89,20.78,15.55-72.26-14.89-20.78Z"/>
      <g class="cls-10">
        <path class="cls-34" d="M552.29,444.46l-15.55,72.26c.32-1.47-.25-4.76-1.69-9.89l15.55-72.26c1.44,5.12,2.01,8.42,1.69,9.89"/>
      </g>
      <g class="cls-47">
        <path class="cls-34" d="M553.66,453.06l-15.55,72.26c.19-.89-.49-3.46-2.07-7.72l15.55-72.26c1.58,4.26,2.26,6.83,2.07,7.72"/>
      </g>
      <path class="cls-22" d="M494.57,313.5c5.7,5.08,11.22,13.14,16.53,24.18,1.31-.19,6.61,8.42,15.91,25.82,5.58,6.75,11.74,17.14,18.49,31.18,1.92,2.33,5.14,7.5,9.64,15.47l-57.32,32.22c-5.19-7.58-10.45-15.13-15.76-22.66l-14.89-20.78c-1.5-.91-4.77-5.3-9.83-13.16-16.33-21.35-29.08-36.7-38.24-46.07l-.23-.48c2.47-3.12,7.07-5.16,13.84-6.11,1.08-1.88,5.05-3.31,11.94-4.28,1.63-1.69,7.4-3.72,17.34-6.06-.47-.98,4.03-2.3,13.48-3.98.83-1.42,7.21-3.18,19.11-5.28"/>
      <polygon class="cls-14" points="555.14 410.14 539.59 482.4 482.27 514.62 497.82 442.36 555.14 410.14"/>
      <path class="cls-64" d="M482.07,419.7l-15.55,72.26c5.32,7.53,10.57,15.08,15.76,22.66l15.55-72.26c-5.19-7.58-10.45-15.13-15.76-22.66"/>
      <g class="cls-36">
        <path class="cls-34" d="M554.79,465.78l-15.55,72.26c.35-1.62-.13-5.75-1.41-12.37l15.55-72.26c1.28,6.63,1.76,10.75,1.41,12.37"/>
      </g>
      <g class="cls-3">
        <polygon class="cls-57" points="623.06 482.05 607.51 554.32 607.51 554.32 623.06 482.05"/>
        <polygon class="cls-45" points="623.06 482.05 607.51 554.32 607.49 554.32 623.04 482.05 623.06 482.05"/>
        <path class="cls-62" d="M623.04,482.05l-15.55,72.26s-.01,0-.02,0l15.55-72.26s.02,0,.02,0"/>
        <path class="cls-19" d="M623.02,482.05l-15.55,72.26s-.01,0-.02-.01l15.54-72.26s.02,0,.02,0"/>
        <path class="cls-49" d="M622.99,482.04l-15.55,72.26s-.02,0-.02-.01l15.54-72.26s.02.01.03.02"/>
        <path class="cls-34" d="M622.97,482.03l-15.55,72.26c-.79-.49-4.62-7.03-11.47-19.65l15.55-72.26c6.85,12.62,10.68,19.17,11.47,19.65"/>
      </g>
      <g class="cls-12">
        <path class="cls-57" d="M613.2,481.88l-15.55,72.26s-.09.02-.12.05l15.55-72.26s.08-.04.12-.05"/>
        <path class="cls-45" d="M613.07,481.93l-15.55,72.26s-.05.04-.07.08l15.55-72.26s.05-.06.07-.07"/>
        <path class="cls-62" d="M613,482.01l-15.55,72.26s-.04.07-.06.12l15.55-72.26s.04-.09.06-.12"/>
        <path class="cls-19" d="M612.93,482.13l-15.55,72.26s-.02.07-.03.11l15.54-72.26s.02-.08.03-.11"/>
      </g>
      <g class="cls-13">
        <path class="cls-34" d="M556.34,474.96l-15.55,72.26c.38-1.78-.18-4.69-1.7-8.75l15.55-72.26c1.51,4.06,2.08,6.97,1.7,8.75"/>
      </g>
      <g class="cls-63">
        <path class="cls-57" d="M614.98,489.95l-15.55,72.26c-.08.01-.16.04-.23.09l15.55-72.26c.07-.05.14-.07.23-.09"/>
        <path class="cls-45" d="M614.74,490.04l-15.55,72.26c-.06.04-.11.09-.15.15l15.55-72.26c.05-.06.1-.11.16-.15"/>
        <path class="cls-62" d="M614.58,490.2l-15.54,72.26c-.05.07-.1.16-.13.26l15.54-72.26c.04-.1.09-.19.13-.26"/>
        <path class="cls-19" d="M614.46,490.46l-15.54,72.26c-.03.08-.05.16-.07.26l15.55-72.26c.02-.09.05-.18.07-.26"/>
      </g>
      <g class="cls-18">
        <path class="cls-57" d="M616.2,501.21l-15.55,72.26c-.07.01-.13.03-.18.07l15.55-72.26c.05-.04.11-.06.18-.07"/>
        <path class="cls-45" d="M616.03,501.28l-15.55,72.26s-.09.07-.12.12l15.55-72.26c.04-.05.08-.09.12-.12"/>
        <path class="cls-62" d="M615.9,501.41l-15.55,72.26c-.04.06-.08.13-.11.21l15.55-72.26c.03-.08.07-.15.11-.21"/>
        <path class="cls-19" d="M615.8,501.62l-15.55,72.26c-.02.06-.04.13-.05.2l15.54-72.26c.02-.08.03-.14.06-.2"/>
      </g>
      <path class="cls-64" d="M644.58,518.39s-.1-.08-.15-.13c-.07-.07-.14-.14-.23-.23-.06-.07-.14-.16-.2-.24-.1-.12-.2-.24-.32-.39-.08-.11-.17-.23-.26-.36-.13-.17-.26-.35-.4-.56-.1-.15-.21-.31-.32-.47-.15-.22-.31-.46-.47-.72-.13-.19-.26-.39-.39-.6-.18-.27-.36-.56-.54-.85-.15-.24-.31-.49-.47-.75-.19-.31-.39-.64-.6-.98-.18-.29-.36-.58-.54-.89-.21-.35-.44-.73-.67-1.11-.2-.34-.41-.69-.63-1.05-.23-.38-.47-.78-.7-1.19-.24-.41-.48-.82-.74-1.26-.23-.4-.48-.82-.72-1.24-.28-.48-.56-.97-.85-1.47-.24-.42-.5-.87-.76-1.31-.31-.54-.62-1.08-.94-1.64-.26-.45-.53-.94-.8-1.41-.35-.61-.69-1.22-1.06-1.86-.25-.45-.52-.93-.78-1.39-.4-.7-.78-1.39-1.2-2.12-.27-.49-.57-1.01-.85-1.51-.42-.75-.84-1.49-1.27-2.27-.3-.53-.61-1.1-.92-1.65-.44-.79-.87-1.57-1.33-2.39-.77-1.39-1.56-2.81-2.38-4.29l-15.54,72.26c.83,1.51,1.64,2.97,2.43,4.38.11.2.22.38.32.58.68,1.22,1.35,2.42,1.99,3.57.08.14.15.26.22.4.65,1.17,1.29,2.31,1.91,3.4.13.23.25.44.37.66.55.98,1.09,1.94,1.62,2.87.15.26.29.51.44.77.48.84.94,1.66,1.39,2.45.17.3.34.59.5.88.41.71.81,1.41,1.19,2.07.18.31.35.6.52.9.35.61.7,1.2,1.03,1.77.18.31.35.6.53.9.3.51.6,1.02.88,1.49.18.3.35.59.52.87.26.43.51.85.75,1.25.17.28.34.55.5.82.22.35.43.7.63,1.02.16.25.31.5.46.73.18.29.36.57.53.84.14.22.28.44.42.64.15.23.3.45.44.66.13.19.25.37.36.54.13.18.24.34.35.5.11.14.21.28.3.41.1.13.19.25.28.35.08.1.16.2.23.28.08.09.14.15.21.21.06.06.12.11.16.15.02.01.04.04.05.05.02.01.03.02.05.03.02,0,.03.01.04.02.01,0,.02,0,.04,0h.04l15.55-72.26c-.05,0-.13-.04-.22-.1"/>
      <g class="cls-42">
        <path class="cls-57" d="M617.38,510.92l-15.55,72.26s-.1.03-.14.06l15.55-72.26s.09-.05.14-.06"/>
        <path class="cls-45" d="M617.24,510.97l-15.55,72.26s-.06.06-.09.09l15.54-72.26s.06-.07.09-.09"/>
        <path class="cls-62" d="M617.15,511.07l-15.54,72.26s-.06.11-.09.18l15.54-72.26c.03-.07.06-.13.09-.18"/>
        <path class="cls-19" d="M617.07,511.24l-15.55,72.26c-.02.05-.03.11-.05.17l15.54-72.26c.01-.06.03-.12.05-.17"/>
      </g>
      <g class="cls-20">
        <path class="cls-57" d="M618.79,521.11l-15.55,72.26c-.07.01-.14.04-.2.08l15.55-72.26c.06-.04.13-.07.2-.08"/>
        <path class="cls-45" d="M618.6,521.19l-15.55,72.26s-.1.08-.14.14l15.55-72.26c.04-.06.08-.1.14-.14"/>
        <path class="cls-62" d="M618.46,521.32l-15.55,72.26c-.04.06-.08.13-.11.22l15.55-72.26c.03-.09.07-.16.11-.22"/>
        <path class="cls-19" d="M618.34,521.55l-15.55,72.26c-.02.06-.04.13-.06.21l15.55-72.26c.02-.07.04-.14.06-.21"/>
      </g>
      <g class="cls-28">
        <path class="cls-57" d="M620.19,531.3l-15.55,72.26c-.08,0-.14.03-.2.08l15.55-72.26c.06-.04.13-.07.2-.08"/>
        <path class="cls-45" d="M620,531.38l-15.55,72.26s-.09.07-.13.13l15.55-72.26c.03-.05.08-.1.13-.13"/>
        <path class="cls-62" d="M619.86,531.51l-15.54,72.26c-.04.06-.07.12-.1.19l15.55-72.26c.03-.07.06-.14.1-.19"/>
        <path class="cls-19" d="M619.78,531.7l-15.55,72.26c-.02.05-.03.11-.05.17l15.54-72.26c.01-.06.03-.11.05-.17"/>
      </g>
      <g class="cls-56">
        <path class="cls-57" d="M622.02,540.92l-15.55,72.26c-.08.01-.16.04-.23.09l15.55-72.26c.07-.05.14-.07.23-.09"/>
        <path class="cls-45" d="M621.79,541.01l-15.55,72.26c-.06.04-.11.09-.15.16l15.55-72.26c.05-.06.1-.11.15-.15"/>
        <path class="cls-62" d="M621.64,541.16l-15.55,72.26c-.05.07-.1.16-.13.26l15.54-72.26c.04-.1.08-.19.13-.26"/>
        <path class="cls-19" d="M621.51,541.42l-15.55,72.26c-.03.08-.05.17-.07.26l15.55-72.26c.02-.09.05-.18.07-.26"/>
      </g>
      <path class="cls-14" d="M748.89,537.92s-.04.04-.06.06c-.06.05-.16.11-.26.16-.07.04-.12.07-.2.11-.12.06-.27.12-.42.19-.09.03-.16.07-.25.11-.21.09-.46.17-.72.26-.07.02-.13.05-.2.07-.35.11-.73.24-1.16.37-.13.04-.28.08-.41.12-.19.05-.38.11-.58.17l2.94-13.66c-.01.06-.03.12-.04.18-.97,4.49-1.93,8.99-2.9,13.48-.14.04-.26.07-.4.11-.2.06-.42.11-.63.17-.33.09-.66.18-1.02.27-.25.06-.52.13-.78.2-.36.09-.71.18-1.1.27-.29.07-.61.15-.92.22-.39.1-.79.19-1.2.29-.34.08-.69.16-1.04.24-.43.1-.86.2-1.31.3-.38.09-.77.18-1.16.26-.46.1-.94.21-1.42.32-.43.1-.86.19-1.3.29-.49.11-1,.22-1.52.33-.47.1-.94.2-1.43.31-.54.11-1.09.23-1.65.35-.5.11-.99.21-1.51.32-.61.13-1.24.26-1.87.39-.51.11-1.02.21-1.55.32-.71.15-1.45.3-2.2.44-.48.1-.94.19-1.43.29-1.25.25-2.54.51-3.87.77l-28.53,7.53c-.07.07-.21.16-.35.25-.09.05-.17.11-.28.16-.13.06-.28.14-.44.21-.14.06-.27.12-.43.19-.19.08-.42.17-.64.25-.19.07-.36.14-.57.21-.26.09-.56.19-.85.29-.23.08-.45.15-.7.23-.33.11-.7.22-1.08.34-.27.09-.53.17-.82.26-.42.13-.88.26-1.34.39-.3.09-.57.17-.89.26-.53.15-1.13.32-1.72.48-.29.08-.56.16-.86.24-.92.25-1.88.51-2.91.78l-15.54,72.26c1.03-.27,2-.53,2.91-.78.31-.08.58-.16.87-.24.58-.16,1.17-.32,1.71-.48.32-.09.6-.17.9-.26.46-.13.92-.27,1.34-.39.3-.09.56-.17.83-.26.37-.12.74-.23,1.07-.34.26-.08.48-.16.72-.24.29-.1.58-.19.83-.29.22-.07.4-.15.59-.22.22-.08.43-.17.62-.24.17-.07.31-.13.45-.2.15-.07.3-.14.43-.2.11-.06.21-.12.29-.17.05-.03.13-.07.17-.1.07-.05.13-.1.18-.15l28.53-7.53c1.33-.26,2.62-.52,3.87-.77.49-.1.96-.19,1.44-.29.74-.15,1.47-.3,2.18-.44.53-.11,1.04-.21,1.56-.32.63-.13,1.26-.26,1.86-.38.51-.11,1.01-.21,1.5-.31.56-.12,1.12-.24,1.66-.35.49-.1.96-.21,1.43-.31.51-.11,1.02-.22,1.51-.32.45-.1.89-.19,1.32-.29.48-.11.95-.21,1.41-.31.39-.09.78-.18,1.16-.26.45-.1.89-.2,1.31-.3.35-.09.71-.16,1.05-.24.41-.1.81-.19,1.19-.29.31-.07.63-.15.92-.22.38-.09.73-.18,1.08-.27.27-.07.54-.14.8-.2.35-.09.68-.18,1-.27.21-.06.44-.12.64-.17.35-.1.67-.19.98-.28.14-.04.29-.09.43-.12.42-.13.81-.25,1.15-.37.08-.03.15-.05.22-.08.25-.09.49-.17.69-.25.1-.04.17-.07.26-.11.15-.06.3-.13.42-.19.08-.04.13-.07.19-.11.07-.04.16-.08.21-.12.02-.01.03-.03.05-.04.02-.02.04-.04.06-.06.03-.02.07-.05.09-.07.02-.03.05-.07.06-.1,0-.01,0-.02,0-.03,5.18-24.09,10.37-48.17,15.55-72.26-.01.06-.07.13-.15.2"/>
      <polygon class="cls-32" points="671.18 558.82 655.64 631.08 657.36 630.33 672.91 558.06 671.18 558.82"/>
      <polygon class="cls-32" points="671.18 558.82 655.64 631.08 654.32 631.27 669.87 559.01 671.18 558.82"/>
      <path class="cls-64" d="M669.32,558.91s-.04-.02-.06-.03c-.14-.06-.3-.17-.46-.28-.1-.07-.2-.14-.31-.22-.15-.12-.3-.27-.46-.42-.11-.11-.22-.2-.34-.33-.19-.19-.39-.42-.59-.66-.11-.13-.22-.24-.34-.39-.27-.33-.56-.7-.86-1.09-.07-.09-.12-.16-.19-.25-.38-.51-.77-1.06-1.19-1.67-.07-.1-.15-.23-.22-.33-.35-.52-.71-1.05-1.09-1.64-.14-.21-.29-.45-.43-.67-.33-.51-.66-1.03-1.01-1.59-.17-.28-.36-.59-.54-.88-.33-.55-.67-1.1-1.02-1.69-.2-.33-.41-.68-.61-1.03-.35-.6-.71-1.2-1.07-1.84-.22-.39-.45-.78-.68-1.18-.37-.65-.75-1.31-1.14-2-.24-.42-.48-.85-.73-1.29-.4-.72-.81-1.45-1.22-2.21-.26-.46-.51-.92-.77-1.39-.43-.78-.86-1.59-1.31-2.4-.27-.5-.53-.99-.81-1.5-.47-.88-.96-1.79-1.45-2.71-.26-.49-.51-.96-.78-1.46-.55-1.04-1.12-2.13-1.69-3.23-.22-.42-.43-.82-.66-1.26-.81-1.55-1.64-3.14-2.48-4.79l-15.55,72.26c.84,1.63,1.66,3.2,2.45,4.73.32.61.63,1.19.94,1.79.47.9.94,1.8,1.4,2.66.36.68.71,1.33,1.06,2,.38.72.77,1.44,1.14,2.13.36.68.72,1.33,1.07,1.98.35.64.69,1.28,1.03,1.89.34.62.67,1.22,1,1.82.33.6.66,1.19.98,1.77.32.57.63,1.12.94,1.67.31.55.62,1.09.92,1.61.3.52.6,1.03.89,1.53.29.5.58.99.86,1.46.27.46.54.92.81,1.36.28.47.55.91.82,1.35.24.4.49.81.73,1.19.27.44.53.84.79,1.24.21.33.43.68.64,1,.29.44.56.84.83,1.24.16.23.32.49.47.71.41.59.8,1.13,1.16,1.62.12.15.22.27.33.42.25.33.5.65.73.93.13.16.25.28.37.43.19.22.38.44.56.62.13.13.24.23.35.34.16.15.31.29.45.41.11.09.21.15.31.23.08.05.17.13.25.18.07.04.13.06.19.09.03.01.05.03.08.04.02,0,.03.02.05.02.06.02.12.04.18.05.05.01.1.02.15.02.05,0,.1,0,.14,0h0s0,0,0,0h0l15.55-72.26c-.16.02-.34-.01-.54-.09"/>
      <g class="cls-46">
        <path class="cls-57" d="M623.25,552.18l-15.54,72.26c-.1.02-.19.05-.26.1l15.55-72.26c.08-.05.16-.08.26-.1"/>
        <path class="cls-45" d="M622.99,552.27l-15.55,72.26c-.05.04-.11.09-.15.15l15.55-72.26c.04-.06.09-.11.15-.15"/>
        <path class="cls-62" d="M622.85,552.42l-15.55,72.26c-.05.06-.08.13-.11.22l15.55-72.26c.03-.09.07-.16.11-.22"/>
        <path class="cls-19" d="M622.73,552.64l-15.54,72.26c-.02.06-.04.12-.06.19l15.55-72.26c.02-.07.03-.13.05-.19"/>
      </g>
      <g class="cls-7">
        <path class="cls-34" d="M524.1,542.21l-15.55,72.26c-14.44-22.98-29.46-45.84-45.01-68.57l15.55-72.26c15.56,22.73,30.57,45.59,45.01,68.57"/>
      </g>
      <polygon class="cls-39" points="526.9 548.05 511.36 620.31 508.55 614.47 524.09 542.21 526.9 548.05"/>
      <polygon class="cls-14" points="624.26 565.93 608.71 638.19 588.14 639.01 603.69 566.75 624.26 565.93"/>
      <polygon class="cls-39" points="528.31 550.97 512.76 623.23 511.36 620.31 526.91 548.05 528.31 550.97"/>
      <polygon class="cls-14" points="563.11 572.45 547.56 644.71 588.15 639.01 603.69 566.75 563.11 572.45"/>
      <path class="cls-14" d="M547.26,577.28l-15.55,72.26c6.86-2.69,12.14-4.3,15.86-4.83l15.55-72.26c-3.72.52-9,2.13-15.86,4.83"/>
      <path class="cls-34" d="M546.13,577.15c-.06-.01-.13-.01-.18-.02-.35-.07-.65-.16-.92-.28-.05-.02-.09-.04-.13-.06-.2-.09-.37-.21-.52-.33-.07-.05-.15-.09-.21-.15-.19-.18-.35-.38-.46-.61-3.32-6.89-8.45-15.14-15.39-24.73l-15.55,72.26c6.94,9.59,12.07,17.84,15.39,24.73.11.23.27.44.46.62.06.06.14.1.21.15.12.09.23.19.37.27.04.02.1.04.14.06.05.02.09.04.14.06.08.03.15.07.23.1.2.07.42.13.65.18.01,0,.03,0,.04,0,.05.01.12.01.17.02.28.05.56.09.88.11.08,0,.17.01.26.01l15.54-72.26c-.42-.02-.78-.06-1.13-.13"/>
      <path class="cls-22" d="M740.4,326.79l-2.01,21.63-1.57,34.51-.12,9.89-.24,14.06,2.43,50.06c.44,10.6,1.15,16.91,2.12,18.94-1.29,2.17-.9,5.4,1.17,9.7-1.31.18-.98,3.78.98,10.78-1.31.18-.85,3.07,1.35,8.64-1.06.66-.57,4.59,1.46,11.74-1.19.17-.67,3.22,1.59,9.14-.49,1.88,0,5.8,1.46,11.74.51,1.07-10.74,3.85-33.71,8.38l-28.53,7.53c-.78.8-5.42,2.32-13.9,4.55l-1.73.76-1.31.19c-2.61.36-10.98-13.14-25.07-40.51-.99.14-8.22-12.02-21.74-36.44-.53.07-4.39-6.49-11.56-19.68l1.71,19.51c-.77.11-.16,2.8,1.77,8.07-1.19.17-.79,3.91,1.23,11.26-.99.14-.6,3.37,1.18,9.71-.87.12-.4,3.52,1.41,10.19-1.09.15-.62,3.55,1.41,10.19-1.09.15-.48,3.36,1.83,9.62-1.19.17-.79,3.92,1.23,11.26-1.21.17-.68,3.2,1.59,9.12l-.58,4.63-20.57.82-40.58,5.7c-3.72.52-9,2.13-15.86,4.83-1.91-.08-3.09-.61-3.56-1.58-3.32-6.89-8.45-15.14-15.39-24.73l-1.4-2.92-2.81-5.84c-14.44-22.98-29.46-45.84-45.01-68.57l57.06-32.07c4.55,8.18,10.27,18.86,17.19,32.11,1.35,1.36,2.03,1.8,2.9,1.67.57-1.73.04-4.77-1.59-9.14.59-1.21.15-5.47-1.27-12.81.75-.1.16-2.79-1.79-8.07,1.31-.19.97-3.77-.99-10.76.38-.05.56-.54.56-1.44l12.7-7.14,9.69-5.45,62.09-34.89,34.22,64.37.47.97,1.78.79c-1.86-9.7-2.87-18.56-3.01-26.6-1.34-12.9-2.2-29.15-2.54-48.73-.05-2.64-.08-5.35-.11-8.11l20.98-11.79,52.98-29.76Z"/>
      <polygon class="cls-32" points="310.77 406.87 295.22 479.13 294.58 479.22 310.12 406.96 310.77 406.87"/>
      <g class="cls-48">
        <path class="cls-34" d="M314.57,408.93l-15.55,72.26c-.84-.7-1.58-1.23-2.24-1.57l15.55-72.26c.66.34,1.4.87,2.24,1.57"/>
        <path class="cls-49" d="M312.33,407.36l-15.55,72.26c-.26-.13-.51-.24-.74-.32l15.55-72.26c.23.08.48.19.73.32"/>
        <path class="cls-19" d="M311.59,407.04l-15.55,72.26c-.15-.05-.29-.09-.43-.12l15.55-72.26c.14.03.28.07.43.12"/>
        <path class="cls-62" d="M311.16,406.92l-15.55,72.26c-.12-.03-.23-.04-.34-.05l15.55-72.26c.11,0,.22.02.34.05"/>
        <path class="cls-45" d="M310.82,406.87l-15.55,72.26s-.03,0-.05,0l15.55-72.26s.03,0,.05,0"/>
      </g>
      <polygon class="cls-39" points="311.81 419.2 296.26 491.46 294.58 479.22 310.12 406.96 311.81 419.2"/>
      <polygon class="cls-21" points="335.07 434.12 319.52 506.38 299.02 481.19 314.57 408.93 335.07 434.12"/>
      <polygon class="cls-39" points="312.51 427.93 296.97 500.19 296.26 491.46 311.8 419.2 312.51 427.93"/>
      <polygon class="cls-39" points="314.87 447.35 299.32 519.61 296.97 500.19 312.51 427.93 314.87 447.35"/>
      <path class="cls-64" d="M246.36,467.51l7.09-32.98c.4-1.85-.23-7.01-1.88-15.45.1-.46.2-.92.3-1.38.39-1.82.06-3.84-1-6.06.75-3.79.48-7.13-.73-10.05.18-.85.36-1.71.55-2.56.32-1.51,0-3.37-.92-5.53.2-.93.4-1.86.6-2.79.31-1.45-.05-3.28-1.05-5.48.09-.4.17-.8.26-1.2.4-1.84.25-6.67-.4-14.44.13-.61.26-1.21.39-1.82.24-1.1-.11-2.65-1.07-4.63l-15.55,72.26c.64,1.34.99,2.46,1.09,3.4l-.48,2.23c.53,6.2.76,10.62.67,13.24l-.62,2.86c.6,1.25.98,2.38,1.17,3.41l-.94,4.35c.77,1.6,1.19,3.01,1.33,4.27l-.85,3.98c1.48,3.08,1.81,6.67.99,10.76.88,1.82,1.23,3.5,1.11,5.06l-.46,2.13c1.68,8.6,2.33,13.83,1.93,15.7l7.77-36.13c.03-.16.07-.34.11-.52l.4-1.85c.06-.27.11-.53.17-.78"/>
      <polygon class="cls-50" points="356.3 462.3 340.76 534.56 319.52 506.38 335.07 434.12 356.3 462.3"/>
      <polygon class="cls-37" points="356.3 462.3 340.76 534.56 340.35 535.15 355.89 462.88 356.3 462.3"/>
      <polygon class="cls-39" points="356.13 463.37 340.58 535.63 340.35 535.14 355.89 462.88 356.13 463.37"/>
      <polygon class="cls-39" points="315.81 456.56 300.26 528.82 299.32 519.61 314.87 447.35 315.81 456.56"/>
      <path class="cls-64" d="M255.18,453.19c-5.18,24.09-10.36,48.17-15.55,72.26.41-1.92-.27-7.9-2.06-17.96l15.55-72.26c1.79,10.06,2.47,16.04,2.06,17.96"/>
      <g class="cls-9">
        <path class="cls-64" d="M255.18,453.19l-15.55,72.26c.41-1.92-.27-7.9-2.06-17.96l15.55-72.26c1.79,10.06,2.47,16.04,2.06,17.96"/>
      </g>
      <polygon class="cls-39" points="317.45 467.25 301.91 539.51 300.26 528.82 315.81 456.56 317.45 467.25"/>
      <polygon class="cls-32" points="356.13 463.37 340.58 535.63 304.33 540.21 319.88 467.94 356.13 463.37"/>
      <path class="cls-27" d="M310.77,406.87c.95.04,2.21.73,3.79,2.06l20.5,25.19,21.24,28.18-.41.59.23.48-36.24,4.58c-1.31.19-2.12-.05-2.43-.7l-1.65-10.68-.94-9.22-2.35-19.42-.71-8.73-1.68-12.24.65-.09Z"/>
      <g class="cls-1">
        <path class="cls-57" d="M319.88,467.94l-15.55,72.26s-.08.01-.12.02l15.55-72.26s.08,0,.12-.02"/>
        <path class="cls-45" d="M319.76,467.96l-15.55,72.26c-.34.05-.65.06-.92.04l15.54-72.26c.27.02.58,0,.93-.04"/>
        <path class="cls-62" d="M318.83,468l-15.55,72.26c-.14,0-.26-.02-.38-.05l15.55-72.26c.12.02.24.04.38.05"/>
        <path class="cls-19" d="M318.46,467.95l-15.55,72.26c-.09-.02-.18-.04-.26-.07l15.55-72.26c.08.03.16.05.26.07"/>
        <path class="cls-49" d="M318.2,467.88l-15.55,72.26c-.08-.03-.15-.06-.22-.09l15.55-72.26c.07.04.14.07.22.1"/>
        <path class="cls-34" d="M317.98,467.78l-15.55,72.26c-.24-.13-.42-.31-.53-.54l15.55-72.26c.11.23.29.41.53.54"/>
      </g>
      <path class="cls-64" d="M256.51,462.93c-5.18,24.09-10.36,48.17-15.55,72.26.24-1.1-.26-4.18-1.5-9.26l15.55-72.26c1.24,5.07,1.74,8.16,1.5,9.26"/>
      <g class="cls-26">
        <path class="cls-64" d="M256.51,462.93l-15.55,72.26c.24-1.1-.26-4.18-1.5-9.26l15.55-72.26c1.24,5.07,1.74,8.16,1.5,9.26"/>
      </g>
      <g class="cls-25">
        <path class="cls-34" d="M257.68,475.05l-15.55,72.26c.32-1.46-.19-5.35-1.49-11.66l15.55-72.26c1.3,6.32,1.81,10.2,1.49,11.67"/>
      </g>
      <g class="cls-59">
        <path class="cls-34" d="M258.45,481.5l-15.55,72.26c.32-1.49-.09-3.42-1.23-5.79l15.55-72.26c1.14,2.37,1.55,4.3,1.23,5.79"/>
      </g>
      <polygon class="cls-14" points="453.67 467.17 438.12 539.44 354.19 586.59 369.74 514.33 453.67 467.17"/>
      <polygon class="cls-32" points="369.74 514.33 354.19 586.59 346.12 587.85 361.67 515.59 369.74 514.33"/>
      <polygon class="cls-32" points="361.67 515.59 346.12 587.85 331.72 589.87 347.27 517.61 361.67 515.59"/>
      <polygon class="cls-32" points="347.26 517.61 331.72 589.87 314.28 592.85 329.83 520.58 347.26 517.61"/>
      <polygon class="cls-22" points="369.74 514.33 332.88 535.04 329.83 520.59 347.27 517.61 361.67 515.59 369.74 514.33"/>
      <polygon class="cls-14" points="369.74 514.33 354.19 586.59 317.34 607.3 332.88 535.04 369.74 514.33"/>
      <polygon class="cls-39" points="332.88 535.04 317.34 607.3 314.28 592.85 329.83 520.59 332.88 535.04"/>
      <polygon class="cls-64" points="374.81 538.78 359.26 611.04 343.16 613.54 358.71 541.28 374.81 538.78"/>
      <path class="cls-64" d="M385.42,549.23l-15.55,72.26c-4.8-6.35-8.33-9.83-10.61-10.45l15.55-72.26c2.29.63,5.81,4.11,10.61,10.45"/>
      <g class="cls-2">
        <path class="cls-64" d="M385.42,549.23l-15.55,72.26c-4.17-5.51-7.38-8.87-9.65-10.06l15.55-72.26c2.27,1.19,5.48,4.54,9.65,10.06"/>
        <path class="cls-64" d="M375.77,539.17l-15.55,72.26c-.25-.13-.49-.24-.72-.32l15.55-72.26c.23.08.47.19.72.32"/>
        <path class="cls-64" d="M375.05,538.85l-15.55,72.26c-.08-.03-.16-.05-.24-.07l15.55-72.26c.08.02.16.05.24.07"/>
      </g>
      <path class="cls-64" d="M217.81,505.67c-.15.02-.31,0-.49-.07-.01,0-.02-.01-.03-.02-.14-.05-.29-.15-.44-.26-.06-.04-.12-.08-.19-.13-.19-.15-.39-.32-.6-.54-.02-.02-.03-.03-.05-.05-.23-.24-.48-.52-.73-.83-.09-.11-.19-.24-.28-.36-.18-.23-.36-.46-.55-.72-.11-.16-.23-.33-.35-.49-.19-.27-.38-.54-.57-.84-.13-.19-.25-.38-.39-.58-.21-.33-.44-.69-.67-1.05-.12-.19-.24-.38-.37-.59-.36-.58-.72-1.2-1.11-1.86-.19.03-.38,0-.58-.08,0,0-.02,0-.02-.01-.19-.08-.39-.2-.58-.38-.02-.02-.05-.06-.08-.08-.16-.15-.32-.35-.49-.56-.05-.07-.1-.13-.15-.21-.19-.27-.38-.57-.58-.93-.05-.11-.07-.23-.04-.35-5.18,24.09-10.36,48.17-15.55,72.26-.03.12-.01.23.04.35.2.36.39.66.58.93.05.07.1.14.15.2.17.22.34.42.5.57.02.02.05.05.07.07.15.14.3.25.45.32.05.02.09.04.13.06,0,0,.02,0,.02.01.02,0,.03.02.05.02v-.02s0,.02,0,.02c.05.02.1.03.16.04.05,0,.1.02.15.02.07,0,.13,0,.2,0,0,0,.01,0,.02,0,.39.67.76,1.28,1.12,1.87.12.19.23.36.34.55.24.38.47.75.69,1.1.13.19.25.38.37.56.2.3.4.59.59.86.11.16.23.33.34.48.19.26.38.5.56.73.09.12.19.24.27.35.26.31.5.6.73.83.03.02.05.04.07.06.2.2.4.38.58.52.07.06.14.09.2.14.09.06.18.13.26.18.06.03.11.05.16.07.02,0,.04.02.05.02.01,0,.02.01.03.01.05.02.11.03.16.05.05.01.09.02.14.02.05,0,.1,0,.15,0h0c3.81,5.96,7.53,10.8,11.2,14.54l15.55-72.26c-3.67-3.73-7.39-8.58-11.2-14.54"/>
      <polygon class="cls-14" points="262.87 538.3 247.33 610.56 246.39 608.61 261.93 536.35 262.87 538.3"/>
      <path class="cls-14" d="M233,612.56c.14-.06.29-.13.45-.19.2-.09.43-.18.67-.26.19-.07.38-.14.59-.22.28-.1.58-.2.89-.3.24-.08.47-.15.73-.24.35-.11.73-.23,1.12-.34.28-.08.56-.17.86-.25.43-.13.9-.26,1.37-.39.32-.09.63-.18.97-.27.52-.14,1.1-.3,1.67-.45.35-.09.67-.18,1.03-.27.95-.25,1.96-.5,3.02-.77l15.55-72.26c-1.07.26-2.07.52-3.02.76-.38.1-.73.19-1.09.29-.55.14-1.1.29-1.6.43-.36.1-.69.19-1.03.29-.45.13-.9.25-1.31.37-.32.09-.61.18-.91.27-.37.11-.74.22-1.08.33-.27.09-.52.17-.77.25-.3.1-.59.2-.86.29-.22.08-.42.15-.62.23-.23.09-.45.17-.65.26-.17.07-.32.14-.47.2-.17.08-.31.15-.44.22-.11.06-.22.12-.31.18-.04.02-.1.05-.13.07-.11.08-.2.15-.26.22l-15.55,72.26c.08-.09.23-.19.39-.3.09-.06.19-.11.3-.17.14-.07.29-.15.46-.23"/>
      <polygon class="cls-14" points="245.44 541.28 229.89 613.54 231.85 613.27 247.4 541 245.44 541.28"/>
      <path class="cls-64" d="M245.15,541.23s-.02,0-.03-.01c-.08-.03-.17-.09-.27-.15-.06-.04-.12-.08-.19-.13-.08-.06-.16-.13-.25-.2-.08-.06-.15-.12-.23-.2-.1-.09-.2-.19-.3-.29-.09-.09-.17-.17-.27-.26-.12-.12-.24-.26-.37-.39-.1-.11-.19-.2-.29-.32-.16-.18-.34-.38-.51-.58-.15-.17-.31-.36-.47-.55-.19-.23-.38-.46-.59-.71-.13-.16-.28-.35-.41-.52-.17-.21-.34-.42-.51-.65-.15-.2-.32-.41-.47-.61-.18-.23-.36-.46-.55-.71-.17-.22-.35-.46-.52-.69-.2-.26-.39-.52-.6-.8-.18-.23-.36-.48-.54-.73-.22-.3-.44-.61-.68-.92-.19-.26-.38-.52-.57-.78-.24-.33-.48-.67-.73-1.02-.2-.27-.39-.55-.6-.84-.26-.37-.53-.75-.81-1.14-.2-.28-.4-.57-.6-.86-.3-.43-.61-.88-.93-1.33-.19-.28-.38-.55-.58-.83-.35-.5-.71-1.02-1.06-1.55-.18-.26-.35-.51-.54-.78-.55-.8-1.1-1.62-1.68-2.47l-15.55,72.26c.58.85,1.13,1.67,1.68,2.47.2.3.4.58.6.87.33.48.66.96.98,1.42.24.35.47.68.7,1.01.27.38.54.77.8,1.14.24.35.48.68.71,1.01.23.33.47.66.69.98.24.33.46.65.69.97.22.31.44.61.65.9.21.29.42.58.63.86.21.29.42.57.62.85.2.27.39.53.58.79.19.26.38.51.56.75.19.25.37.49.55.73.18.23.35.46.52.68.17.22.34.44.5.64.17.22.33.42.49.62.15.18.3.38.44.55.2.24.38.46.57.68.17.21.34.4.5.59.17.19.34.39.49.56.11.12.2.22.31.33.12.13.24.26.35.38.1.1.19.18.28.27.1.1.2.19.29.28.09.08.16.14.24.21.08.07.17.14.24.19.07.05.14.1.2.14.04.02.08.06.12.08.05.03.09.04.13.06.02,0,.04.02.05.02,0,0,0,0,.01,0,.04.01.07.03.11.03.03,0,.06.01.08.01.03,0,.05,0,.07,0h0l15.55-72.26c-.08.01-.18,0-.29-.05"/>
      <path class="cls-64" d="M415.58,581.24s-.03-.01-.05-.01c-.21-.05-.43-.14-.65-.26-.05-.03-.1-.07-.15-.1-.18-.11-.36-.23-.55-.38-.08-.06-.16-.13-.24-.2-.18-.15-.37-.33-.56-.52-.07-.07-.15-.14-.22-.23-.27-.28-.54-.59-.82-.94-.04-.05-.08-.11-.12-.15-.25-.31-.51-.65-.77-1.02-.09-.13-.18-.26-.28-.39-.23-.32-.46-.67-.7-1.03-.09-.14-.19-.28-.28-.43-.33-.51-.66-1.05-1-1.62-.1.01-.24-.02-.4-.1-.02,0-.04-.02-.06-.03-.14-.07-.3-.18-.48-.3-.05-.03-.09-.05-.14-.09-.23-.17-.49-.39-.77-.64-.1-.09-.22-.2-.32-.3-.21-.19-.42-.39-.66-.61-.14-.13-.28-.28-.43-.42-.24-.24-.48-.49-.75-.76-.16-.17-.32-.34-.49-.51-.28-.3-.58-.62-.89-.95-.17-.19-.35-.38-.53-.58-.35-.38-.71-.79-1.09-1.21-.17-.19-.33-.37-.5-.57-.56-.64-1.14-1.31-1.77-2.03-.09.01-.2,0-.32-.06,0,0-.02,0-.02-.01-.1-.04-.22-.12-.33-.21-.03-.02-.05-.03-.08-.06-.15-.11-.3-.26-.47-.43-.03-.03-.06-.06-.09-.09-.14-.15-.3-.32-.46-.52-.06-.07-.13-.15-.19-.23-.14-.17-.28-.35-.43-.55-.08-.1-.15-.2-.23-.31-.15-.21-.31-.43-.47-.66-.08-.12-.17-.24-.25-.36-.18-.26-.37-.55-.56-.84-.08-.12-.15-.23-.23-.35-.28-.43-.56-.88-.87-1.36-.1.01-.24-.02-.42-.1-.01,0-.02-.01-.04-.02-.18-.09-.38-.22-.62-.4-.03-.02-.06-.05-.09-.07-.22-.17-.45-.37-.72-.61-.1-.09-.22-.21-.33-.31-.21-.2-.43-.4-.67-.64-.14-.14-.3-.3-.45-.46-.24-.24-.48-.5-.74-.77-.18-.19-.35-.38-.54-.58-.27-.3-.56-.61-.85-.94-.2-.22-.39-.44-.6-.68-.33-.37-.67-.77-1.02-1.17-.2-.24-.4-.46-.61-.71-.57-.67-1.17-1.37-1.8-2.12l-15.55,72.26c.64.77,1.25,1.48,1.83,2.16.17.19.31.36.47.55.4.46.8.92,1.16,1.33.18.2.35.39.52.58.32.36.63.7.93,1.02.17.18.33.36.49.53.27.29.53.56.78.81.14.15.29.3.42.43.24.24.47.45.68.66.11.1.22.22.32.31.27.24.51.45.73.62.02.02.05.05.08.06.22.17.41.3.58.38.02.01.03.02.05.02.01,0,.02.01.03.02.05.02.1.05.14.06.04.01.08.02.12.03.03,0,.06.01.08.01.03,0,.05,0,.07,0,0,0,0,0,0,0,.3.48.58.92.85,1.34.1.15.19.29.28.43.17.26.34.51.5.75.1.15.2.29.3.43.14.2.28.4.42.58.1.13.19.26.28.38.13.17.25.33.37.48.08.1.16.2.24.3.13.16.26.3.38.43.05.05.11.12.16.17.16.17.32.31.46.42.04.03.07.05.11.07.08.06.16.12.23.16.03.01.05.02.07.03.01,0,.02,0,.03.01.02,0,.03.02.05.02.03.01.06.02.09.03.03,0,.06,0,.09.01.03,0,.06,0,.08,0,0,0,0,0,0,0,.62.72,1.2,1.39,1.76,2.02.19.21.36.41.54.61.36.4.71.8,1.04,1.17.19.21.37.41.55.6.3.33.59.64.87.93.17.18.33.35.49.51.27.28.52.53.76.77.14.14.28.28.41.41.25.24.48.45.7.65.09.08.19.18.28.26.29.26.56.48.79.65.03.02.06.03.09.06.17.12.33.23.47.3.02.01.05.02.07.03.02,0,.03.02.05.02.04.02.08.04.12.05.04.02.09.03.12.03.03,0,.06.01.09.01.03,0,.05,0,.08,0,0,0,0,0,0,0,.34.58.68,1.11,1,1.62.1.15.19.29.28.44.23.36.46.7.69,1.02.1.14.19.28.28.41.26.36.52.7.77,1.01.04.05.08.1.12.15.28.35.56.66.82.94.07.08.15.15.22.22.19.19.38.37.56.53.08.07.16.14.23.2.19.15.38.28.56.39.05.03.1.07.15.09.01,0,.03.02.04.03.14.08.28.14.42.19.06.02.13.04.19.05.01,0,.03,0,.04.01.02,0,.03.01.05.01.09.02.17.03.26.04.1,0,.2,0,.3,0,0,0,.01,0,.02,0l15.55-72.26c-.2.03-.41.02-.63-.04"/>
      <path class="cls-14" d="M262.87,538.3l-15.55,72.26c.73,6.61.96,10.57.67,11.91,5.18-24.09,10.36-48.17,15.55-72.26.29-1.34.06-5.3-.67-11.91"/>
      <path class="cls-64" d="M421.93,588.14s-.02,0-.02,0c-.12-.05-.26-.13-.4-.23-.05-.04-.1-.07-.16-.11-.15-.11-.31-.25-.48-.4-.03-.03-.06-.05-.1-.09-.2-.2-.43-.43-.66-.69-.07-.07-.14-.17-.21-.25-.17-.2-.35-.41-.54-.65-.1-.12-.2-.25-.3-.38-.18-.23-.36-.47-.55-.72-.11-.15-.22-.3-.33-.45-.2-.28-.42-.59-.63-.9-.1-.15-.21-.3-.31-.45-.33-.48-.67-.99-1.03-1.54l-15.55,72.26c.36.55.7,1.05,1.03,1.54.11.16.21.3.31.45.22.31.43.62.64.91.11.15.22.3.32.44.19.26.38.51.56.74.1.13.19.25.29.37.19.24.37.46.55.66.07.08.14.16.2.23.23.26.45.5.66.69.04.04.07.06.11.1.16.15.32.28.46.39.06.04.12.08.17.11.07.04.14.1.21.14.06.04.13.06.19.08,0,0,.01,0,.02,0,0,0,.02,0,.02.01.05.02.1.03.14.04.04.01.08.01.12.02.04,0,.08,0,.12,0,0,0,0,0,0,0l15.55-72.26c-.12.02-.26,0-.41-.06"/>
      <path class="cls-14" d="M264.09,557.69c-5.18,24.09-10.37,48.17-15.55,72.26.24-1.13-.04-3.45-.84-6.97l15.55-72.26c.8,3.52,1.08,5.84.84,6.97"/>
      <g class="cls-53">
        <path class="cls-14" d="M264.09,557.69l-15.55,72.26c.24-1.13-.04-3.45-.84-6.97l15.55-72.26c.8,3.52,1.08,5.84.84,6.97"/>
      </g>
      <path class="cls-14" d="M478.54,567.83c-.08.07-.16.14-.24.2-1.41,1.16-2.89,2.3-4.42,3.44-.16.12-.33.25-.49.37-1.07.78-2.22,1.55-3.35,2.32-.63.43-1.22.86-1.87,1.29-1.79,1.17-3.64,2.32-5.57,3.46l-6.02,3.44-8,3.72-9.37,3.79c-1.96.27-5.49,1.64-10.61,4.09l-15.55,72.26c5.12-2.45,8.64-3.82,10.61-4.09l9.37-3.79,8-3.72,6.02-3.44c1.93-1.14,3.78-2.29,5.57-3.46.63-.41,1.2-.83,1.81-1.25,1.05-.71,2.11-1.42,3.11-2.14.1-.07.19-.14.29-.22.17-.12.32-.24.49-.37,1.54-1.13,3.02-2.28,4.43-3.44.08-.07.16-.14.24-.2,1.47-1.22,2.88-2.45,4.21-3.7l15.55-72.26c-1.33,1.25-2.74,2.48-4.21,3.7"/>
      <path class="cls-64" d="M428.17,593.92s-.03,0-.05-.01c-.15-.04-.31-.11-.49-.21-.26-.14-.56-.35-.88-.61-.08-.06-.16-.13-.24-.2-.31-.27-.65-.58-1.01-.95-.03-.03-.06-.06-.09-.09-.39-.4-.82-.89-1.27-1.41-.11-.13-.22-.26-.34-.4-.47-.56-.95-1.15-1.47-1.83l-15.55,72.26c.53.68,1.01,1.28,1.48,1.84.11.13.22.26.32.38.45.53.88,1.01,1.27,1.42.03.03.06.05.09.08.36.37.7.68,1.01.95.08.07.17.14.24.21.31.26.61.47.87.61,0,0,.02.02.03.02.13.07.25.12.36.16h0s.06.02.09.03c.02,0,.03,0,.05.01.02,0,.05.02.07.02.06.01.11.02.17.02.06,0,.13,0,.18,0,0,0,0,0,.01,0l15.55-72.26c-.13.02-.28,0-.44-.04"/>
      <path class="cls-22" d="M434.31,498.8c1.93,4.96,3.64,10.74,5.1,17.38,1.36,2.84,2.03,5.16,1.97,7l11.14,12.98c8.58,8.15,13.72,13.49,15.41,16.03.65-.09,5.22,3.6,13.71,11.06l.88.39.24.49c-5.55,5.19-12.26,10.12-20.15,14.77l-6.02,3.44-8,3.72-9.37,3.79c-1.96.27-5.49,1.64-10.61,4.09-1.09.15-3.18-1.76-6.26-5.75-.99.14-3.03-2.17-6.14-6.93-1.64.23-3.98-2.21-7.02-7.33-.87.12-3.96-2.91-9.27-9.09-.77.11-2.43-1.91-5-6.05-.87.12-4.04-3.07-9.5-9.58-4.8-6.35-8.33-9.83-10.61-10.45l-16.1,2.51,75.6-42.48Z"/>
      <polygon class="cls-14" points="332.88 535.04 317.34 607.3 249.49 645.43 265.04 573.17 332.88 535.04"/>
      <path class="cls-61" d="M447.88,460.86l3.32,1.1,1.63,3.4c.28.58.56,1.19.84,1.81l-83.92,47.15-8.08,1.26-14.4,2.02-17.44,2.98,3.06,14.45-67.85,38.13c-.08-6.29-.58-11.2-1.55-14.69.99-.14.91-2.73-.24-7.76.67-.09.53-4.23-.37-12.42l-.94-1.95c-8.96,2.22-13.8,3.77-14.54,4.65l-1.96.28c-1.31.18-6.79-6.85-16.44-21.08-3.67-3.73-7.39-8.58-11.2-14.54-1.19.17-3.46-2.63-6.82-8.39-.77.11-1.6-.64-2.48-2.25-1.09-2.27,13.85-5.58,44.84-9.94,5.23-.74,6.53-3.87,3.88-9.38.99-.14.64-4.24-1.04-12.32.77-.11.38-3.34-1.18-9.71.72-1.14.1-7.29-1.88-18.44.94-.73.4-6.2-1.59-16.4.84-2.11.64-4.5-.65-7.18.81-4.09.49-7.69-.99-10.76,1.4-1.93,1.24-4.68-.48-8.25,1.52-1.69,1.44-4.27-.24-7.76.87-.38.84-5.74-.05-16.1.87-1.07.67-2.95-.61-5.62,3.44-3.26,9.82-6.93,19.16-11.01,6.12-3.28,15.87-6.74,29.27-10.35l2.63-.37,16.79-2.88c3.15-.44,7.6,3.95,13.33,13.2.97-.14,3.62,2.95,7.95,9.27.96.3,6.64,6.77,17.02,19.42l13.86,15.72c.99-.14,3.19,2.5,6.61,7.9,1.41-.2,3.91,2.58,7.49,8.31l29.48,32.23,13.57,13.67c2.49,2.76,5.16,3.96,8.01,3.56l14.22-.97ZM355.89,462.88l.41-.58-21.24-28.18-20.5-25.19c-1.59-1.33-2.85-2.02-3.79-2.06l-.65.09,1.68,12.24.71,8.73,2.35,19.42.94,9.22,1.64,10.68c.31.65,1.12.88,2.43.7l36.24-4.58-.23-.48"/>
      <path class="cls-14" d="M265.04,573.17l-15.55,72.26c-.08-6.29-.59-11.2-1.55-14.69l15.55-72.26c.97,3.49,1.47,8.39,1.55,14.69"/>
      <g class="cls-33">
        <path class="cls-14" d="M265.04,573.17l-15.55,72.26c-.08-6.29-.59-11.2-1.55-14.69l15.55-72.26c.97,3.49,1.47,8.39,1.55,14.69"/>
      </g>
      <g class="cls-40">
        <path class="cls-64" d="M244.32,607.5l-15.55,72.26c0-.66.01-1.3.03-1.95l15.55-72.26c-.01.65-.02,1.29-.03,1.95"/>
      </g>
      <polygon class="cls-64" points="244.56 608 229.01 680.26 228.78 679.76 244.32 607.5 244.56 608"/>
      <polygon class="cls-64" points="246.56 609.27 231.01 681.53 229.01 680.26 244.56 607.99 246.56 609.27"/>
      <path class="cls-14" d="M322.38,607.91c-.11.14-.27.29-.48.45-.1.08-.22.16-.35.23-.07.05-.13.09-.21.14-.22.13-.48.27-.76.41-.2-.09-.42-.18-.66-.26-.07-.02-.16-.05-.23-.07-.1-.03-.2-.06-.3-.09-.27-.08-.56-.15-.86-.22-.11-.02-.2-.05-.31-.07-.04,0-.07-.02-.11-.03-.37-.08-.77-.15-1.19-.21-.11-.02-.24-.03-.35-.05-.38-.06-.78-.11-1.2-.15-.17-.02-.34-.04-.52-.05-.44-.05-.9-.09-1.38-.12-.14,0-.27-.02-.42-.03-.03,0-.06,0-.09,0-.58-.04-1.2-.07-1.83-.1-.18,0-.37-.01-.56-.02-.55-.02-1.11-.04-1.69-.05-.2,0-.41-.01-.62-.01-.77-.01-1.57-.02-2.41-.02-.02-.05-.09-.1-.17-.15,0,0,0-.01-.02-.01-.05-.03-.11-.05-.18-.08-.11-.03-.23-.07-.39-.1h0s-.03,0-.05,0c-.15-.03-.32-.05-.51-.08-.08-.01-.17-.02-.26-.03-.16-.02-.32-.03-.5-.04-.04,0-.06,0-.1-.01-.04,0-.1,0-.14,0-.24-.01-.51-.03-.8-.04-.08,0-.15,0-.23,0-.37-.01-.77-.02-1.2-.02h-.08c-.41,0-.85,0-1.31,0-.11,0-.23,0-.35,0-.42,0-.85.02-1.31.03-.11,0-.21,0-.32,0-1.14.03-2.41.08-3.8.14-.16,0-.32.02-.48.02-.56.03-1.14.06-1.74.09-.18,0-.35.02-.53.03-.76.04-1.55.09-2.37.14-.01-.02-.03-.05-.06-.06-.03-.02-.08-.04-.13-.06,0,0-.02,0-.03,0-.01,0-.03,0-.05,0-.05-.02-.1-.03-.17-.05h0s0,.01,0,.01h0c-.09-.03-.2-.04-.31-.06-.02,0-.04,0-.06,0-.17-.02-.35-.04-.57-.05-.05,0-.12,0-.18,0-.11,0-.24,0-.36-.02-.22,0-.45-.02-.71-.02-.16,0-.33,0-.5,0-.27,0-.56,0-.86,0-.2,0-.39,0-.61,0-.35,0-.73.01-1.11.02-.32,0-.65.01-.99.02-.48.01-.97.03-1.49.04-.35.01-.74.03-1.11.04-.37.02-.73.03-1.12.05-.44.02-.89.04-1.36.06-.35.02-.71.03-1.08.05-.52.02-1.05.05-1.6.08-.35.02-.72.04-1.09.06-.6.03-1.2.06-1.84.1-.25.01-.52.03-.77.05-1.51.08-3.11.18-4.81.28-.2.01-.38.02-.58.03-.75.05-1.53.1-2.31.15-.48.03-.95.06-1.44.09-.72.05-1.46.1-2.22.14-.62.04-1.25.08-1.89.13-.7.05-1.4.1-2.12.14-.79.05-1.6.11-2.41.17-.64.04-1.28.09-1.94.14-1.49.1-3.01.21-4.58.33l-15.55,72.26c1.58-.11,3.09-.22,4.58-.33.66-.05,1.3-.09,1.94-.14.81-.06,1.63-.11,2.41-.17.72-.05,1.42-.1,2.12-.14.64-.04,1.27-.08,1.88-.13.75-.05,1.5-.1,2.22-.15.49-.03.95-.06,1.43-.09.78-.05,1.57-.1,2.32-.15.18-.01.35-.02.53-.03,1.73-.11,3.36-.2,4.89-.29.24-.01.5-.03.73-.04.64-.04,1.25-.07,1.85-.1.36-.02.73-.04,1.07-.06.55-.03,1.09-.05,1.61-.08.37-.02.72-.03,1.07-.05.47-.02.93-.04,1.37-.06.39-.02.75-.03,1.11-.04.38-.01.77-.03,1.12-.04.52-.02,1.01-.03,1.48-.04.35-.01.68-.02,1-.02.38,0,.77-.01,1.11-.02.22,0,.41,0,.61,0,.3,0,.59,0,.86,0,.18,0,.34,0,.5,0,.26,0,.49.01.71.02.12,0,.25.01.36.02.29.02.55.03.76.06.02,0,.03,0,.04,0,.22.03.39.06.51.09,0,0,.01,0,.02,0,.13.04.21.08.23.13.79-.05,1.54-.09,2.27-.13.29-.02.57-.03.85-.05.45-.02.89-.05,1.31-.07.28-.01.56-.03.83-.04.52-.02,1.02-.05,1.51-.06.13,0,.27-.01.39-.02.59-.02,1.15-.04,1.69-.06.18,0,.35,0,.52-.01.38-.01.76-.02,1.11-.02.16,0,.32,0,.47,0,.4,0,.79,0,1.15,0,.07,0,.15,0,.22,0,.41,0,.79,0,1.15.02.11,0,.21,0,.31.01.24,0,.47.02.68.03.11,0,.22.02.33.02.18.01.33.03.49.04.07,0,.15.01.22.02.21.03.41.05.57.09.11.02.2.05.29.08.12.03.22.07.3.12.08.05.14.09.17.15.84,0,1.63,0,2.4.02.21,0,.41,0,.62.01.58.01,1.15.03,1.69.05.19,0,.38.01.56.02.67.03,1.31.06,1.92.11.14,0,.28.02.42.03.48.03.94.07,1.39.12.17.02.34.03.5.05.44.05.86.1,1.26.16.09.01.19.03.28.04.48.07.93.16,1.35.25.08.02.15.03.23.05.32.07.63.15.91.24.1.03.2.06.3.09.32.1.63.21.89.33.28-.14.53-.28.76-.4.08-.05.15-.1.22-.14.1-.07.22-.13.3-.2.02-.01.02-.02.03-.03.21-.16.37-.31.48-.45,0,0,.02-.01.02-.02.05-.07.09-.14.11-.21.01-.03.02-.05.02-.08,5.18-24.09,10.36-48.17,15.55-72.26-.02.1-.08.2-.16.31"/>
      <path class="cls-22" d="M312.94,566.99l.05.21,3.14,16.71,5.67,21.93.71,1.47c.23.48-.42,1.09-1.92,1.83-2.38-1.06-7.29-1.57-14.73-1.57-.35-.73-5.97-.77-16.83-.11-.38-.8-14.54-.2-42.47,1.82l-2-1.28-.24-.49c0-.67.01-1.3.03-1.95l68.59-38.56Z"/>
      <line class="cls-58" x1="389.7" y1="661.89" x2="400.66" y2="672.33"/>
      <path class="cls-17" d="M272.7,354.19s-22.79,32.93-7.67,78.71c0,0-3.87-50.56,7.67-78.71"/>
      <path class="cls-17" d="M732.95,475.88s-1.26,46.31-29.19,63.86c0,0,15.26-23.91,29.19-63.86"/>
      <path class="cls-17" d="M698.03,288.87s20.48-5.59,44.16,6.28c0,0-34.34-6.28-44.16-6.28"/>
      <path class="cls-17" d="M261.02,600.21s6.36,13.43,36.12,2.49c0,0-12.5,3.83-36.12-2.49"/>
      <path class="cls-64" d="M742.4,731.51c-2.6-.25-4.47-1.38-5.6-3.39-2.7,1.96-5.85,2.8-9.43,2.5-5.35-.49-9.65-2.92-12.89-7.29-3.04-4.03-4.57-8.72-4.57-14.07,0-5.94,1.67-11.17,5.01-15.69,3.68-5.01,8.42-7.51,14.22-7.51,3.63,0,6.9.93,9.8,2.8l.96-10.9c.2-2.21,1.02-3.99,2.47-5.34,1.45-1.35,3.23-1.93,5.34-1.73,2.06.15,3.7,1.02,4.9,2.62,1.2,1.6,1.71,3.5,1.51,5.71l-3.98,45.16c-.2,2.21-1.02,3.99-2.47,5.34-1.45,1.35-3.2,1.95-5.27,1.8M731.49,699.61c-1.91-.15-3.54.6-4.86,2.25-1.33,1.65-2.11,3.7-2.36,6.15-.2,2.41.22,4.49,1.25,6.26,1.03,1.92,2.5,2.95,4.42,3.1,1.96.19,3.61-.54,4.94-2.21,1.33-1.67,2.09-3.81,2.28-6.41.24-2.46-.15-4.54-1.18-6.26-1.03-1.72-2.53-2.68-4.49-2.87"/>
      <path class="cls-61" d="M788.59,708.9l-19.08,6.63c1.27,1.28,2.92,1.92,4.93,1.92,1.13,0,2.31-.22,3.54-.66,1.67-.59,3.49-1.96,5.45-4.12,1.96-2.16,3.46-3.44,4.49-3.83.59-.2,1.18-.29,1.77-.29,1.72,0,3.23.61,4.53,1.84,1.3,1.23,1.95,2.68,1.95,4.35,0,2.7-1.67,5.58-5.01,8.62-3,2.8-6.29,4.81-9.87,6.04-2.55.88-5.11,1.33-7.66,1.33-4.57,0-8.66-1.37-12.27-4.12-3.61-2.75-6.23-6.48-7.85-11.2-.88-2.5-1.33-5.11-1.33-7.81,0-4.52,1.15-8.57,3.46-12.16,2.5-3.83,5.92-6.48,10.24-7.96,2.16-.74,4.35-1.1,6.56-1.1,4.52,0,8.72,1.45,12.6,4.35,3.68,2.7,6.19,6.02,7.51,9.95.35.98.52,1.92.52,2.8,0,2.6-1.5,4.42-4.49,5.45M770.03,699.25c-2.85.98-4.3,3.05-4.35,6.19l11.57-3.98c-1.33-1.72-2.97-2.58-4.94-2.58-.73,0-1.5.12-2.28.37"/>
      <path class="cls-14" d="M814.59,730.34c-1.52.34-3.24.51-5.16.51-3.14,0-5.94-.52-8.4-1.55-3.34-1.33-5.01-3.36-5.01-6.11,0-1.42.37-2.75,1.1-3.98.88-1.47,2.14-2.38,3.75-2.73.64-.15,1.28-.22,1.92-.22.98,0,2.32.25,4.01.74,1.7.49,3.01.74,3.94.74.54,0,1.08-.07,1.62-.22,1.57-.35,2.26-.91,2.06-1.69-.1-.39-1.82-.81-5.16-1.25-4.17-.49-7.39-1.27-9.65-2.36-3.68-1.72-5.94-4.42-6.78-8.1-.3-1.13-.44-2.23-.44-3.31,0-4.42,1.89-8.03,5.67-10.83,3.44-2.55,7.44-3.83,12.01-3.83,3.09,0,5.74.54,7.96,1.62,2.95,1.38,4.42,3.44,4.42,6.19,0,1.72-.56,3.22-1.69,4.49-1.13,1.28-2.5,1.92-4.13,1.92-.74,0-1.97-.17-3.68-.52-1.72-.34-3-.51-3.83-.51-1.13,0-1.97.2-2.5.59-.35.24-.47.59-.37,1.03.1.44,1.84.86,5.23,1.25,4.17.54,7.39,1.32,9.65,2.35,3.69,1.76,5.94,4.46,6.78,8.08.24,1.03.37,2.06.37,3.09,0,3.48-1.24,6.54-3.72,9.19-2.48,2.65-5.81,4.46-9.98,5.44"/>
      <path class="cls-29" d="M833.82,686.35c-2.11.15-3.98-.54-5.6-2.06-1.62-1.52-2.51-3.34-2.65-5.45-.1-2.01.6-3.83,2.1-5.45,1.5-1.62,3.28-2.48,5.34-2.58,2.06-.15,3.92.51,5.56,1.95,1.64,1.45,2.52,3.2,2.62,5.27.1,2.16-.57,4.07-1.99,5.71-1.43,1.65-3.22,2.52-5.38,2.62M836.1,730.33c-2.11.15-3.87-.48-5.27-1.88-1.4-1.4-2.15-3.2-2.25-5.41l-1.47-28.29c-.15-2.21.4-4.08,1.66-5.6,1.25-1.52,2.93-2.36,5.05-2.5,2.11-.1,3.87.55,5.27,1.95,1.4,1.4,2.15,3.2,2.25,5.41l1.55,28.29c.1,2.21-.48,4.08-1.73,5.6-1.25,1.52-2.93,2.33-5.04,2.43"/>
      <path class="cls-64" d="M872.79,726.73c-1.72,2.06-4.37,3.51-7.96,4.35-1.47.29-2.9.44-4.27.44-5.7,0-10.41-2.65-14.15-7.96-3.34-4.76-5.01-10.09-5.01-15.99,0-4.86,1.21-9.11,3.61-12.74,2.6-3.93,6.21-6.43,10.83-7.52,1.08-.25,2.19-.37,3.32-.37,2.41,0,4.54.52,6.41,1.55.84-2.15,2.51-3.52,5.01-4.12.59-.15,1.15-.23,1.69-.23,1.72,0,3.21.56,4.49,1.69,1.28,1.13,2.11,2.61,2.5,4.42l6.93,29.91c.49,2.01.74,3.98.74,5.89,0,5.01-1.58,9.21-4.75,12.6-3.17,3.39-7.48,5.7-12.93,6.92-1.57.39-3.56.59-5.97.59-3.39,0-6.34-.42-8.84-1.25-3.73-1.18-5.6-3.12-5.6-5.82,0-1.38.43-2.74,1.29-4.09.86-1.35,1.95-2.17,3.28-2.47.64-.15,1.33-.22,2.06-.22.78,0,2.1.13,3.94.4,1.84.27,3.3.41,4.38.41,1.18,0,2.28-.12,3.32-.37,3.73-.84,5.62-2.85,5.67-6.04M855.62,707.28c0,.93.12,1.87.37,2.8,1.13,5.01,3.44,7.51,6.93,7.51,1.92,0,3.44-.74,4.57-2.21.98-1.28,1.47-2.92,1.47-4.94,0-.93-.12-1.89-.37-2.87-.49-2.26-1.38-4.1-2.65-5.52-1.28-1.43-2.75-2.14-4.42-2.14-1.92,0-3.39.78-4.42,2.36-.98,1.38-1.47,3.04-1.47,5.01"/>
      <path class="cls-52" d="M914.63,732.55c-1.67-.39-3-1.23-3.98-2.5-.98-1.28-1.47-2.78-1.47-4.49,0-.69.07-1.4.22-2.14l4.2-17.98c.15-.64.22-1.25.22-1.84,0-1.47-.51-2.64-1.55-3.5-1.03-.86-2.28-1.29-3.76-1.29-2.46,0-4.03,1.45-4.71,4.34l-4.12,18.05c-.44,1.82-1.3,3.29-2.58,4.42-1.28,1.13-2.75,1.69-4.42,1.69-.59,0-1.15-.07-1.69-.22-1.72-.39-3.06-1.23-4.02-2.5-.96-1.28-1.44-2.78-1.44-4.49,0-.74.07-1.45.22-2.14l6.34-27.55c.44-1.87,1.3-3.35,2.58-4.46,1.28-1.1,2.75-1.66,4.42-1.66,3.14,0,5.31,1.25,6.48,3.76,1.62-.78,3.46-1.18,5.53-1.18,1.37,0,2.87.2,4.49.59,3.88.88,6.98,2.68,9.32,5.38,2.33,2.7,3.5,5.94,3.5,9.72,0,1.38-.15,2.8-.44,4.27l-4.64,19.82c-.39,1.87-1.23,3.35-2.51,4.46-1.28,1.1-2.78,1.66-4.49,1.66-.54,0-1.11-.07-1.69-.22"/>
    </g>
  </g>
</svg>